<?xml version="1.0" standalone="no"?>
<!DOCTYPE svg PUBLIC "-//W3C//DTD SVG 20010904//EN"
 "http://www.w3.org/TR/2001/REC-SVG-20010904/DTD/svg10.dtd">
<svg version="1.0" xmlns="http://www.w3.org/2000/svg"
 width="1280.000000pt" height="1280.000000pt" viewBox="0 0 1280.000000 1280.000000"
 preserveAspectRatio="xMidYMid meet">
<metadata>
Created by potrace 1.14, written by Peter Selinger 2001-2017
</metadata>
<g transform="translate(0.000000,1280.000000) scale(0.100000,-0.100000)"
fill="#000000" stroke="none">
<path d="M8190 12785 c-36 -7 -85 -19 -110 -26 -25 -7 -50 -13 -55 -14 -6 -2
-46 -17 -90 -36 -157 -65 -346 -217 -447 -359 -64 -91 -142 -247 -163 -330
-23 -87 -29 -120 -39 -207 -3 -25 -30 -58 -143 -170 -339 -334 -499 -632 -633
-1179 -76 -313 -132 -514 -160 -579 -5 -11 -25 -58 -44 -104 -88 -207 -225
-389 -422 -559 -78 -68 -289 -204 -409 -264 -101 -51 -246 -116 -295 -133 -3
-1 -16 -6 -30 -12 -91 -37 -289 -104 -660 -223 -241 -77 -403 -134 -494 -174
-31 -14 -56 -23 -56 -21 0 8 -306 -149 -393 -202 -87 -52 -236 -151 -247 -163
-3 -3 -21 -17 -40 -30 -19 -13 -37 -27 -40 -30 -3 -3 -18 -16 -34 -28 -136
-105 -419 -385 -521 -517 -38 -49 -72 -92 -76 -95 -29 -24 -299 -445 -299
-466 0 -4 -10 -23 -22 -43 -13 -20 -23 -38 -23 -41 -1 -3 -19 -43 -42 -90 -51
-107 -74 -159 -103 -235 -12 -33 -26 -69 -31 -80 -24 -57 -107 -327 -129 -419
-13 -56 -48 -226 -56 -271 -3 -16 -7 -43 -10 -60 -3 -16 -7 -43 -9 -60 -9 -69
-16 -122 -20 -155 -35 -264 -25 -820 20 -1080 2 -14 6 -41 9 -60 12 -82 49
-254 82 -379 166 -636 512 -1204 974 -1602 86 -74 75 -65 167 -133 106 -80
242 -162 388 -236 112 -57 288 -133 335 -146 8 -2 62 -20 119 -40 97 -33 328
-95 396 -107 17 -3 55 -10 85 -17 30 -6 70 -13 89 -16 18 -3 42 -7 51 -9 10
-2 40 -7 67 -11 26 -3 57 -8 68 -10 18 -3 79 -11 155 -19 65 -7 153 -15 230
-21 47 -4 108 -9 135 -11 28 -2 525 -6 1105 -7 580 -2 1073 -6 1095 -9 22 -3
80 -8 129 -12 49 -3 103 -8 120 -10 17 -2 58 -7 91 -10 58 -6 88 -10 165 -21
19 -3 51 -7 70 -10 19 -3 49 -8 65 -11 17 -4 37 -7 45 -8 8 -1 33 -5 55 -10
22 -4 47 -9 55 -11 518 -101 1122 -343 1594 -637 41 -25 231 -151 241 -159 6
-5 39 -30 75 -55 57 -40 246 -188 260 -203 3 -3 43 -39 90 -80 47 -41 128
-116 179 -167 52 -51 97 -91 99 -88 5 5 -39 144 -78 240 -40 101 -144 309
-200 400 -291 477 -705 850 -1195 1080 -339 158 -802 276 -1220 310 -105 8
-207 15 -300 20 -100 6 -557 6 -705 1 -115 -4 -393 -16 -475 -21 -256 -14
-487 -19 -840 -20 -368 0 -487 4 -635 20 -25 3 -65 7 -90 10 -61 6 -121 14
-205 27 -38 6 -81 12 -95 13 -14 2 -25 4 -25 5 0 2 -3 2 -90 20 -83 17 -121
25 -190 45 -33 9 -69 18 -81 21 -25 5 -285 94 -299 102 -5 4 -16 7 -24 9 -8 1
-91 40 -185 87 -275 137 -458 267 -667 476 -69 69 -153 161 -187 205 -34 44
-68 87 -77 96 -8 9 -15 20 -15 26 0 6 -7 16 -15 23 -25 21 -176 280 -230 395
-107 227 -206 537 -239 745 -3 19 -7 44 -10 55 -8 44 -22 149 -33 260 -10 104
-10 507 1 610 13 126 14 138 21 180 3 22 11 69 17 105 5 36 12 79 15 95 9 58
82 331 113 424 52 157 120 318 205 486 70 137 179 321 214 362 6 7 11 15 11
18 0 9 148 203 213 280 96 112 343 353 452 440 363 292 646 439 1325 685 339
123 539 205 700 287 80 40 154 79 165 86 213 132 300 199 435 336 88 89 230
272 230 296 0 4 8 19 18 33 64 95 195 471 228 655 2 17 7 33 9 37 2 4 7 22 10
41 3 19 8 41 10 49 2 8 6 26 9 40 2 14 12 57 21 95 9 39 19 81 21 95 13 70 89
345 129 467 92 274 229 592 343 794 11 20 26 47 34 60 7 13 15 26 18 29 3 3
13 21 23 40 31 59 52 95 57 100 3 3 14 21 24 40 31 55 123 192 151 225 116
133 204 219 312 305 48 38 216 147 280 181 81 43 248 117 322 141 24 8 37 17
30 20 -27 10 -255 5 -319 -7z"/>
<path d="M8839 12776 c-2 -2 -31 -6 -65 -9 -316 -30 -621 -217 -800 -493 -110
-168 -178 -389 -177 -574 1 -61 14 -203 20 -213 3 -5 22 40 43 100 73 209 123
322 208 464 141 237 386 477 663 650 121 75 125 78 118 78 -3 1 -8 -1 -10 -3z"/>
<path d="M8856 12663 c-54 -27 -60 -32 -114 -84 -73 -71 -98 -108 -129 -193
-22 -61 -26 -193 -7 -258 19 -61 61 -148 72 -148 4 0 15 -12 24 -27 56 -94
189 -174 313 -189 l50 -6 -30 17 c-44 24 -127 90 -161 127 -75 83 -104 165
-110 308 -6 150 27 265 120 423 16 26 27 50 25 51 -2 2 -26 -7 -53 -21z"/>
<path d="M9130 11734 c237 -132 380 -265 455 -424 36 -76 111 -333 130 -450
20 -118 42 -185 110 -325 86 -179 101 -216 123 -294 34 -118 23 -217 -39 -368
-7 -18 -17 -33 -21 -33 -4 0 -8 -5 -8 -11 0 -37 -148 -184 -235 -233 -69 -38
-232 -106 -239 -99 -3 4 -6 1 -6 -5 0 -7 -7 -12 -16 -12 -22 0 -179 -68 -239
-104 -183 -108 -312 -273 -379 -482 -31 -96 -37 -130 -40 -214 -6 -151 43
-334 126 -461 35 -56 146 -174 155 -165 2 1 -9 29 -23 62 -29 64 -61 186 -72
274 -14 111 -5 320 17 404 27 100 95 236 148 293 6 7 20 23 30 35 29 37 134
123 183 151 48 27 121 57 320 133 174 66 259 115 354 203 36 34 124 146 141
178 2 4 200 -57 255 -79 150 -59 320 -161 450 -269 79 -66 72 -52 -20 40 -82
83 -145 135 -240 198 -89 60 -260 148 -345 178 -101 37 -86 51 52 49 108 -1
204 -10 273 -26 25 -5 55 -12 68 -14 39 -8 171 -54 230 -81 32 -14 66 -30 77
-35 71 -32 -90 65 -186 113 -132 65 -360 124 -499 129 l-45 2 52 23 c91 42
170 57 288 57 165 0 289 -38 420 -129 44 -31 46 -31 20 -6 -86 82 -180 136
-305 174 -91 28 -289 35 -385 13 -83 -18 -81 -18 -82 19 0 93 -32 182 -155
437 -62 127 -104 232 -153 385 -38 116 -72 217 -76 225 -4 8 -22 44 -39 80
-83 170 -223 330 -340 387 -119 59 -278 112 -335 113 -11 0 8 -16 45 -36z"/>
<path d="M9320 11078 c-100 -28 -165 -123 -158 -229 7 -105 87 -207 208 -268
58 -29 130 -42 130 -23 0 4 -13 19 -29 33 -28 25 -29 27 -14 49 33 47 48 190
28 269 -5 21 -4 23 8 13 14 -12 23 -41 34 -102 6 -35 11 -37 35 -12 16 15 23
36 24 69 5 136 -131 239 -266 201z m55 -128 c-19 -60 -24 -140 -14 -210 4 -25
6 -46 5 -48 -2 -1 -20 23 -41 54 -33 48 -39 64 -39 111 -1 51 2 57 34 84 41
34 64 38 55 9z"/>
<path d="M8405 10344 c-113 -14 -155 -21 -205 -34 -19 -5 -46 -11 -60 -14 -55
-10 -240 -76 -320 -115 -110 -54 -128 -72 -25 -26 44 20 89 40 100 45 78 35
276 82 401 95 38 4 78 9 89 11 26 5 304 5 330 0 11 -2 54 -7 95 -11 41 -4 84
-9 95 -11 11 -3 52 -11 90 -18 202 -40 431 -118 611 -209 l85 -43 -183 -1
c-101 -1 -221 -4 -268 -7 -161 -11 -319 -25 -340 -31 -8 -2 -42 -6 -75 -10
-50 -5 -189 -28 -310 -51 -90 -16 -254 -54 -280 -64 -16 -6 -32 -11 -35 -11
-53 3 -450 -136 -626 -220 -58 -27 -107 -49 -110 -49 -3 0 -12 -7 -20 -15 -21
-20 -14 -19 43 9 138 68 364 148 568 202 31 8 225 51 265 59 14 3 36 7 50 10
52 11 183 31 260 41 25 3 56 7 70 9 22 3 61 7 195 20 158 15 549 25 567 14 8
-5 -32 -17 -122 -34 -69 -13 -473 -143 -542 -173 -23 -11 -79 -35 -123 -53
-44 -18 -87 -38 -95 -44 -8 -6 -35 -20 -60 -30 -25 -10 -56 -26 -70 -35 -14
-9 -33 -20 -43 -23 -28 -10 -226 -137 -293 -186 -158 -120 -328 -287 -384
-379 -9 -15 -24 -33 -33 -41 -10 -7 -17 -18 -17 -24 0 -6 -6 -18 -14 -26 -19
-22 -78 -132 -74 -136 2 -3 13 12 23 33 55 107 240 321 360 417 28 22 52 42
55 45 3 3 21 17 40 30 19 13 37 27 40 30 12 14 222 140 300 179 312 159 755
304 1085 356 55 9 109 18 121 19 43 8 159 20 167 18 9 -3 1 84 -9 100 -3 4 10
26 28 49 27 34 30 42 18 50 -14 10 -127 64 -195 94 -183 80 -473 158 -665 180
-30 3 -63 9 -73 11 -38 12 -386 10 -482 -2z m1339 -360 c24 -9 19 -22 -6 -19
-30 3 -30 3 -23 15 7 12 8 12 29 4z"/>
<path d="M7395 9530 c-3 -6 1 -7 9 -4 18 7 21 14 7 14 -6 0 -13 -4 -16 -10z"/>
<path d="M9010 8015 c0 -3 18 -32 39 -64 160 -235 233 -446 226 -654 -4 -117
-7 -141 -28 -217 -58 -206 -131 -349 -347 -680 -80 -124 -164 -254 -186 -290
-21 -36 -41 -67 -44 -70 -3 -3 -11 -16 -18 -29 -8 -13 -46 -80 -86 -150 -267
-466 -388 -736 -420 -941 -3 -19 -8 -46 -10 -59 -20 -94 -28 -494 -13 -576 16
-88 50 -247 64 -300 8 -33 17 -71 19 -85 12 -70 77 -309 112 -412 60 -176 138
-339 202 -419 22 -28 26 -39 17 -48 -9 -9 -6 -16 13 -31 14 -11 29 -20 33 -20
16 0 74 -46 128 -102 64 -64 97 -138 103 -229 11 -146 -54 -263 -204 -367 -67
-46 -71 -59 -26 -68 145 -27 321 119 371 308 26 96 5 238 -48 328 -65 111
-208 201 -309 195 -26 -2 -28 2 -62 109 -40 129 -73 248 -81 291 -5 29 -8 48
-20 105 -2 14 -7 40 -10 58 -3 17 -7 44 -10 60 -2 15 -7 50 -10 77 -2 28 -7
61 -10 75 -3 14 -8 147 -10 295 -4 293 3 379 50 574 35 148 110 371 170 506 7
17 28 64 46 105 93 210 286 562 482 880 174 281 220 368 252 470 23 75 54 209
61 270 2 19 7 51 10 70 12 69 11 296 -1 365 -42 247 -201 513 -376 632 -59 40
-69 45 -69 38z"/>
<path d="M7320 5531 c0 -5 -15 -35 -33 -68 -49 -86 -146 -317 -139 -330 1 -2
-5 -21 -13 -43 -8 -22 -12 -40 -9 -40 2 0 0 -8 -5 -17 -5 -10 -12 -36 -15 -58
-4 -22 -10 -53 -15 -70 -8 -26 -31 -157 -47 -265 -25 -175 -24 -567 1 -770 10
-76 81 -339 120 -440 108 -284 272 -538 475 -739 63 -62 191 -161 208 -161 7
0 12 -4 12 -9 0 -5 8 -11 18 -15 9 -3 53 -26 97 -51 44 -24 83 -45 87 -45 4 0
-18 35 -50 77 -32 43 -74 101 -93 128 -18 28 -37 52 -41 53 -5 2 -8 10 -8 18
0 8 -3 14 -7 14 -5 0 -24 27 -43 60 -19 33 -38 60 -42 60 -5 0 -8 4 -8 10 0 5
-16 34 -35 65 -70 108 -155 292 -220 475 -15 41 -31 84 -35 95 -4 11 -14 40
-21 65 -7 25 -14 50 -15 55 -2 6 -22 82 -44 170 -37 144 -53 217 -76 340 -4
22 -9 47 -10 55 -3 16 -13 92 -19 150 -17 161 -28 610 -15 610 3 0 5 17 6 38
1 45 12 216 19 292 26 286 27 300 21 300 -3 0 -6 -4 -6 -9z"/>
<path d="M4709 5055 c-2 -1 -33 -6 -69 -9 -36 -3 -76 -7 -90 -10 -14 -3 -42
-7 -64 -10 -21 -4 -41 -8 -45 -10 -3 -2 -22 -7 -41 -10 -187 -30 -573 -211
-545 -255 10 -17 51 -13 185 14 123 26 226 37 335 38 67 0 249 -11 280 -17 11
-2 42 -7 68 -10 27 -4 56 -9 65 -11 144 -30 195 -43 297 -77 66 -22 157 -58
202 -80 184 -89 506 -323 676 -491 97 -95 119 -124 130 -168 9 -36 45 -45 53
-14 12 48 -64 283 -141 437 -82 162 -223 331 -380 453 -137 107 -325 193 -459
211 -17 2 -55 8 -84 13 -50 8 -366 14 -373 6z"/>
<path d="M3776 2837 c-17 -13 -16 -16 14 -51 46 -52 244 -182 382 -249 244
-120 604 -211 958 -243 41 -3 84 -8 94 -10 11 -2 60 -6 110 -10 50 -3 109 -7
131 -9 160 -13 470 -19 885 -16 1177 8 1154 8 1270 -23 30 -9 100 -33 155 -55
54 -22 103 -37 108 -34 23 14 -129 114 -233 154 -85 32 -249 72 -345 84 -22 2
-58 7 -80 10 -135 16 -160 19 -300 29 -104 8 -281 19 -520 31 -55 3 -140 7
-190 10 -49 3 -139 8 -200 11 -180 8 -438 27 -545 39 -25 2 -72 7 -105 10 -88
8 -251 28 -340 41 -22 4 -51 7 -65 9 -14 1 -38 5 -55 8 -16 4 -50 9 -75 13
-25 3 -49 7 -55 8 -5 2 -28 6 -50 10 -22 4 -69 14 -105 21 -36 8 -81 17 -100
20 -71 12 -308 77 -439 121 -128 43 -219 70 -267 80 -11 2 -29 -2 -38 -9z"/>
</g>
</svg>
